<svg width="21" height="25" viewBox="0 0 21 25" fill="none" xmlns="http://www.w3.org/2000/svg">
<path d="M10.5 8.30078C12.7922 8.30078 14.6504 6.44259 14.6504 4.15039C14.6504 1.85819 12.7922 0 10.5 0C8.2078 0 6.34961 1.85819 6.34961 4.15039C6.34961 6.44259 8.2078 8.30078 10.5 8.30078Z" fill="#8F7D7D"/>
<path d="M13.5498 8.86304C12.6711 9.43369 11.6237 9.76562 10.5001 9.76562C9.37649 9.76562 8.32908 9.43369 7.45032 8.86304C6.47888 9.23428 5.5782 9.78198 4.79504 10.4849L10.5001 12.6243L16.2051 10.4849C15.422 9.78198 14.5213 9.23423 13.5498 8.86304Z" fill="#8F7D7D"/>
<path d="M19.2891 15.1367H18.8008C18.3963 15.1367 18.0684 15.4646 18.0684 15.8691V17.8223C18.0684 18.2268 18.3963 18.5547 18.8008 18.5547H19.2891C20.2329 18.5547 20.998 17.7896 20.998 16.8457C20.998 15.9019 20.2329 15.1367 19.2891 15.1367Z" fill="#8F7D7D"/>
<path d="M2.27031 11.4393C2.07285 11.5761 1.95508 11.801 1.95508 12.0413V13.6719H2.19922C3.41079 13.6719 4.39648 14.6576 4.39648 15.8692V17.8223C4.39648 19.0338 3.41079 20.0195 2.19922 20.0195H1.95508V21.5628C1.95508 21.8681 2.14448 22.1414 2.43032 22.2485L9.76758 25V13.9141L2.94468 11.3555C2.71973 11.2711 2.46772 11.3024 2.27031 11.4393Z" fill="#8F7D7D"/>
<path d="M16.6035 17.8223V15.8692C16.6035 14.6576 17.5892 13.6719 18.8008 13.6719H19.0449V12.0413C19.0449 11.801 18.9271 11.5761 18.7297 11.4393C18.5322 11.3024 18.2802 11.2711 18.0553 11.3555L11.2324 13.9141V25L18.5697 22.2485C18.8555 22.1414 19.0449 21.8681 19.0449 21.5628V20.0195H18.8008C17.5892 20.0195 16.6035 19.0338 16.6035 17.8223Z" fill="#8F7D7D"/>
<path d="M2.93164 17.8223V15.8691C2.93164 15.4646 2.60371 15.1367 2.19922 15.1367H1.71094C0.76709 15.1367 0.00195312 15.9019 0.00195312 16.8457C0.00195312 17.7896 0.76709 18.5547 1.71094 18.5547H2.19922C2.60371 18.5547 2.93164 18.2268 2.93164 17.8223Z" fill="#8F7D7D"/>
</svg>
